#!OML:ASF H:\MichaelJackson\Top Level 1\Subject 1\Session 1\male.ASF
:FULLY-SPECIFIED
:DEGREES
1434
root -11.2986 15.4771 17.3783 -360.559 22.0471 -17.274
lowerback 2.31598 -5.38681 0.967396
upperback 1.16529 -7.16752 5.48866
thorax 0.499471 -3.61895 5.22912
lowerneck 0.250721 -16.5012 -11.1959
upperneck 10.8204 -23.1046 10.155
head 5.71146 -11.3999 3.24821
rclavicle -4.6118e-014 7.95139e-016
rhumerus -40.0842 -4.8038 -39.2788
rradius 55.7169
rwrist 7.39825
rhand -33.0817 -28.7417
rfingers 7.12502
rthumb -6.2931 -58.6282
lclavicle -4.6118e-014 7.95139e-016
lhumerus -3.54825 -28.6673 55.9741
lradius 140
lwrist 34.3932
lhand -24.7225 25.0576
lfingers 7.12502
lthumb 1.77959 55.0299
rfemur 2.20077 -7.67559 14.5723
rtibia 30.7812
rfoot -12.9458 -17.2191
rtoes -45.1403
lfemur -46.3558 32.2277 0.49633
ltibia 64.4468
lfoot -18.6345 -10.75
ltoes 22.5864
1435
root -11.3376 15.4405 17.389 -360.651 21.5192 -17.2552
lowerback 2.37846 -5.2726 0.492183
upperback 1.20472 -7.02724 5.50797
thorax 0.553413 -3.55507 5.5145
lowerneck 0.336033 -16.4129 -11.1698
upperneck 10.9726 -23.0317 10.308
head 5.75294 -11.3581 3.29946
rclavicle 2.3059e-014 -2.8625e-014
rhumerus -39.0992 -5.34623 -38.2087
rradius 53.674
rwrist 6.27238
rhand -33.3618 -29.8442
rfingers 7.12502
rthumb -6.56346 -59.7225
lclavicle 2.3059e-014 -2.8625e-014
lhumerus 0.141417 -24.0814 52.3793
lradius 140.536
lwrist 36.3378
lhand -26.5647 29.2087
lfingers 7.12502
lthumb 0.000327683 59.1884
rfemur 2.40342 -7.21794 14.7665
rtibia 30.6426
rfoot -14.2166 -17.8007
rtoes -44.5036
lfemur -46.1467 32.6571 0.947808
ltibia 64.8405
lfoot -18.7874 -10.7185
ltoes 22.1699
1436
root -11.3769 15.4066 17.3979 -360.687 20.984 -17.2401
lowerback 2.31551 -5.14735 -0.020622
upperback 1.3124 -6.88121 5.58793
thorax 0.757366 -3.49264 5.86849
lowerneck 0.174731 -16.4175 -11.2242
upperneck 11.2734 -23.0609 10.3504
head 5.88854 -11.3601 3.2878
rclavicle 4.00551e-014 6.2816e-014
rhumerus -38.0253 -6.03553 -37.1616
rradius 51.5753
rwrist 5.33788
rhand -33.7244 -30.8701
rfingers 7.12502
rthumb -6.91351 -60.7373
lclavicle 4.00551e-014 6.2816e-014
lhumerus 3.58608 -19.3809 49.4551
lradius 140.858
lwrist 37.8372
lhand -28.248 33.2693
lfingers 7.12502
lthumb -1.62539 63.2429
rfemur 2.53169 -6.56122 15.1132
rtibia 30.4988
rfoot -15.2051 -18.807
rtoes -43.8347
lfemur -45.9691 32.994 1.40649
ltibia 65.2027
lfoot -18.9097 -10.6081
ltoes 21.8235
1437
root -11.415 15.3728 17.4095 -360.709 20.592 -17.1325
lowerback 2.37081 -5.07608 -0.541358
upperback 1.24517 -6.79454 5.52362
thorax 0.701192 -3.45309 6.10021
lowerneck 0.321199 -16.3772 -11.0551
upperneck 11.6468 -23.0517 10.2581
head 5.95063 -11.3533 3.24379
rclavicle 1.35174e-014 -4.69132e-014
rhumerus -37.4394 -6.47115 -36.3759
rradius 49.729
rwrist 4.54801
rhand -34.2754 -31.6282
rfingers 7.12502
rthumb -7.44543 -61.4771
lclavicle 1.35174e-014 -4.69132e-014
lhumerus 6.57302 -14.9513 46.9415
lradius 140.951
lwrist 38.9887
lhand -30.1866 36.2603
lfingers 7.12502
lthumb -3.49767 66.2113
rfemur 2.73274 -6.04805 15.3982
rtibia 30.3234
rfoot -16.2726 -19.9582
rtoes -43.0548
lfemur -45.8188 33.1463 1.74277
ltibia 65.567
lfoot -19.0534 -10.4151
ltoes 21.3426
1438
root -11.4477 15.3399 17.4213 -360.663 20.277 -17.0119
lowerback 2.31486 -5.03522 -0.982519
upperback 1.22317 -6.75195 5.50932
thorax 0.754894 -3.4375 6.32673
lowerneck 0.383593 -16.356 -11.0948
upperneck 11.8658 -23.0532 10.2692
head 6.01573 -11.3537 3.24893
rclavicle -3.26007e-014 7.39479e-014
rhumerus -36.7127 -6.93637 -35.6211
rradius 47.8308
rwrist 3.85817
rhand -35.0735 -32.8383
rfingers 7.12502
rthumb -8.2157 -62.6586
lclavicle -3.26007e-014 7.39479e-014
lhumerus 9.23908 -10.4415 45.0533
lradius 140.957
lwrist 40.009
lhand -31.6034 37.9295
lfingers 7.12502
lthumb -4.86574 67.8536
rfemur 2.90221 -5.63284 15.6789
rtibia 30.0994
rfoot -17.3397 -21.2382
rtoes -42.2499
lfemur -45.7838 33.1855 1.9843
ltibia 65.9448
lfoot -19.2478 -10.1264
ltoes 20.5912
1439
root -11.4772 15.3033 17.4335 -360.593 20.1112 -17.006
lowerback 2.24415 -5.07066 -1.20157
upperback 1.11571 -6.80284 5.50659
thorax 0.71482 -3.46333 6.44479
lowerneck 0.447635 -16.3232 -11.1424
upperneck 12.1466 -23.0263 10.1537
head 6.08269 -11.3454 3.2206
rclavicle -8.33902e-014 7.95139e-015
rhumerus -36.2048 -7.15879 -35.0291
rradius 46.2063
rwrist 3.53209
rhand -35.9338 -33.9123
rfingers 7.12502
rthumb -9.04591 -63.6984
lclavicle -8.33902e-014 7.95139e-015
lhumerus 11.4131 -6.16378 43.6104
lradius 140.985
lwrist 41.0239
lhand -31.915 38.9403
lfingers 7.12502
lthumb -5.16661 68.8573
rfemur 3.06474 -5.53771 16.0393
rtibia 29.7971
rfoot -18.7778 -22.4007
rtoes -41.1768
lfemur -45.9378 33.0981 2.24612
ltibia 66.3534
lfoot -19.4367 -9.7859
ltoes 19.6879
1440
root -11.5006 15.2696 17.448 -360.482 20.0834 -17.0809
lowerback 2.01889 -5.14389 -1.30201
upperback 1.03174 -6.90576 5.59208
thorax 0.78937 -3.51754 6.57151
lowerneck 0.218903 -16.3159 -11.2943
upperneck 12.582 -22.997 9.89156
head 6.24114 -11.332 3.12993
rclavicle 4.77083e-015 4.37326e-014
rhumerus -35.6769 -7.24128 -34.4087
rradius 44.52
rwrist 3.68064
rhand -36.6541 -34.8758
rfingers 7.12502
rthumb -9.7409 -64.6306
lclavicle 4.77083e-015 4.37326e-014
lhumerus 13.2131 -2.23866 42.6859
lradius 141.068
lwrist 41.7534
lhand -31.8185 38.9665
lfingers 7.12502
lthumb -5.07348 68.8858
rfemur 3.21022 -5.53907 16.4682
rtibia 29.4312
rfoot -20.1978 -23.463
rtoes -40.1027
lfemur -46.2261 32.8334 2.50479
ltibia 66.767
lfoot -19.5618 -9.43293
ltoes 19.2327
1441
root -11.5195 15.2374 17.4635 -360.327 20.0854 -17.1582
lowerback 1.75532 -5.23086 -1.29778
upperback 0.914896 -7.02381 5.64955
thorax 0.837414 -3.57664 6.60751
lowerneck 0.131965 -16.2848 -11.3465
upperneck 12.8715 -22.9298 9.60834
head 6.31219 -11.307 3.04509
rclavicle 4.00551e-014 2.06736e-014
rhumerus -35.3143 -7.18209 -33.91
rradius 43.0332
rwrist 4.37289
rhand -37.2033 -35.6934
rfingers 7.12502
rthumb -10.2708 -65.4227
lclavicle 4.00551e-014 2.06736e-014
lhumerus 14.5479 1.31066 42.054
lradius 141.343
lwrist 42.1839
lhand -30.4526 39.1789
lfingers 7.12502
lthumb -3.75449 69.1256
rfemur 3.33624 -5.48583 16.8177
rtibia 29.0179
rfoot -17.3031 -25.4036
rtoes -42.5786
lfemur -46.5891 32.5851 2.70157
ltibia 67.1802
lfoot -19.676 -9.05371
ltoes 18.5678
